<mxfile host="app.diagrams.net" agent="Mozilla/5.0 (Windows NT 10.0; Win64; x64) AppleWebKit/537.36 (KHTML, like Gecko) Chrome/137.0.0.0 Safari/537.36" version="27.1.6">
  <diagram name="Pagina-1" id="88rqKn-kRWn1IQCB_Tzr">
    <mxGraphModel dx="1426" dy="777" grid="1" gridSize="10" guides="1" tooltips="1" connect="1" arrows="1" fold="1" page="1" pageScale="1" pageWidth="827" pageHeight="1169" math="0" shadow="0">
      <root>
        <mxCell id="0" />
        <mxCell id="1" parent="0" />
        <mxCell id="oClGTv9jNvnOxV3lfpxi-3" style="edgeStyle=orthogonalEdgeStyle;rounded=0;orthogonalLoop=1;jettySize=auto;html=1;entryX=0.5;entryY=0;entryDx=0;entryDy=0;" parent="1" source="uWzpOT1AdCiu_1bDRIk7-1" target="oClGTv9jNvnOxV3lfpxi-1" edge="1">
          <mxGeometry relative="1" as="geometry">
            <Array as="points">
              <mxPoint x="314" y="170" />
            </Array>
          </mxGeometry>
        </mxCell>
        <mxCell id="oClGTv9jNvnOxV3lfpxi-4" style="edgeStyle=orthogonalEdgeStyle;rounded=0;orthogonalLoop=1;jettySize=auto;html=1;entryX=0.5;entryY=0;entryDx=0;entryDy=0;" parent="1" source="uWzpOT1AdCiu_1bDRIk7-1" target="oClGTv9jNvnOxV3lfpxi-2" edge="1">
          <mxGeometry relative="1" as="geometry">
            <Array as="points">
              <mxPoint x="514" y="170" />
            </Array>
          </mxGeometry>
        </mxCell>
        <mxCell id="uWzpOT1AdCiu_1bDRIk7-1" value="Start game" style="rounded=1;whiteSpace=wrap;html=1;fillColor=#dae8fc;strokeColor=#6c8ebf;" parent="1" vertex="1">
          <mxGeometry x="350" y="130" width="120" height="60" as="geometry" />
        </mxCell>
        <mxCell id="uWzpOT1AdCiu_1bDRIk7-5" style="edgeStyle=orthogonalEdgeStyle;rounded=0;orthogonalLoop=1;jettySize=auto;html=1;exitX=0.5;exitY=1;exitDx=0;exitDy=0;entryX=0.5;entryY=0;entryDx=0;entryDy=0;" parent="1" source="uWzpOT1AdCiu_1bDRIk7-2" target="uWzpOT1AdCiu_1bDRIk7-4" edge="1">
          <mxGeometry relative="1" as="geometry" />
        </mxCell>
        <mxCell id="uWzpOT1AdCiu_1bDRIk7-2" value="Genereer een random word" style="rounded=1;whiteSpace=wrap;html=1;fillColor=#d5e8d4;strokeColor=#82b366;" parent="1" vertex="1">
          <mxGeometry x="360" y="584" width="120" height="60" as="geometry" />
        </mxCell>
        <mxCell id="uWzpOT1AdCiu_1bDRIk7-7" style="edgeStyle=orthogonalEdgeStyle;rounded=0;orthogonalLoop=1;jettySize=auto;html=1;entryX=0.5;entryY=0;entryDx=0;entryDy=0;" parent="1" source="uWzpOT1AdCiu_1bDRIk7-4" target="uWzpOT1AdCiu_1bDRIk7-6" edge="1">
          <mxGeometry relative="1" as="geometry" />
        </mxCell>
        <mxCell id="uWzpOT1AdCiu_1bDRIk7-4" value="Speler gokt een word" style="rounded=1;whiteSpace=wrap;html=1;fillColor=#fff2cc;strokeColor=#d6b656;" parent="1" vertex="1">
          <mxGeometry x="360" y="664" width="120" height="60" as="geometry" />
        </mxCell>
        <mxCell id="uWzpOT1AdCiu_1bDRIk7-9" style="edgeStyle=orthogonalEdgeStyle;rounded=0;orthogonalLoop=1;jettySize=auto;html=1;" parent="1" source="uWzpOT1AdCiu_1bDRIk7-6" target="uWzpOT1AdCiu_1bDRIk7-8" edge="1">
          <mxGeometry relative="1" as="geometry" />
        </mxCell>
        <mxCell id="uWzpOT1AdCiu_1bDRIk7-10" value="Nee" style="edgeLabel;html=1;align=center;verticalAlign=middle;resizable=0;points=[];" parent="uWzpOT1AdCiu_1bDRIk7-9" vertex="1" connectable="0">
          <mxGeometry x="-0.3667" y="3" relative="1" as="geometry">
            <mxPoint as="offset" />
          </mxGeometry>
        </mxCell>
        <mxCell id="uWzpOT1AdCiu_1bDRIk7-14" style="edgeStyle=orthogonalEdgeStyle;rounded=0;orthogonalLoop=1;jettySize=auto;html=1;entryX=0.5;entryY=0;entryDx=0;entryDy=0;" parent="1" source="uWzpOT1AdCiu_1bDRIk7-6" target="uWzpOT1AdCiu_1bDRIk7-13" edge="1">
          <mxGeometry relative="1" as="geometry" />
        </mxCell>
        <mxCell id="uWzpOT1AdCiu_1bDRIk7-15" value="Ja" style="edgeLabel;html=1;align=center;verticalAlign=middle;resizable=0;points=[];" parent="uWzpOT1AdCiu_1bDRIk7-14" vertex="1" connectable="0">
          <mxGeometry x="-0.3091" y="-2" relative="1" as="geometry">
            <mxPoint as="offset" />
          </mxGeometry>
        </mxCell>
        <mxCell id="uWzpOT1AdCiu_1bDRIk7-6" value="Correct?" style="rhombus;whiteSpace=wrap;html=1;fillColor=#e1d5e7;strokeColor=#9673a6;" parent="1" vertex="1">
          <mxGeometry x="380" y="764" width="80" height="80" as="geometry" />
        </mxCell>
        <mxCell id="uWzpOT1AdCiu_1bDRIk7-11" style="edgeStyle=orthogonalEdgeStyle;rounded=0;orthogonalLoop=1;jettySize=auto;html=1;exitX=0.5;exitY=0;exitDx=0;exitDy=0;entryX=1;entryY=0.5;entryDx=0;entryDy=0;" parent="1" source="uWzpOT1AdCiu_1bDRIk7-8" target="uWzpOT1AdCiu_1bDRIk7-4" edge="1">
          <mxGeometry relative="1" as="geometry" />
        </mxCell>
        <mxCell id="uWzpOT1AdCiu_1bDRIk7-12" value="Ja" style="edgeLabel;html=1;align=center;verticalAlign=middle;resizable=0;points=[];" parent="uWzpOT1AdCiu_1bDRIk7-11" vertex="1" connectable="0">
          <mxGeometry x="0.04" y="3" relative="1" as="geometry">
            <mxPoint as="offset" />
          </mxGeometry>
        </mxCell>
        <mxCell id="uWzpOT1AdCiu_1bDRIk7-18" style="edgeStyle=orthogonalEdgeStyle;rounded=0;orthogonalLoop=1;jettySize=auto;html=1;exitX=0.5;exitY=1;exitDx=0;exitDy=0;" parent="1" source="uWzpOT1AdCiu_1bDRIk7-8" target="oClGTv9jNvnOxV3lfpxi-23" edge="1">
          <mxGeometry relative="1" as="geometry">
            <mxPoint x="560" y="1124" as="targetPoint" />
            <Array as="points">
              <mxPoint x="560" y="1224" />
            </Array>
          </mxGeometry>
        </mxCell>
        <mxCell id="uWzpOT1AdCiu_1bDRIk7-19" value="Nee" style="edgeLabel;html=1;align=center;verticalAlign=middle;resizable=0;points=[];" parent="uWzpOT1AdCiu_1bDRIk7-18" vertex="1" connectable="0">
          <mxGeometry x="-0.5229" relative="1" as="geometry">
            <mxPoint as="offset" />
          </mxGeometry>
        </mxCell>
        <mxCell id="uWzpOT1AdCiu_1bDRIk7-8" value="Heeft de speler nog een gok? (5)" style="rhombus;whiteSpace=wrap;html=1;fillColor=#e1d5e7;strokeColor=#9673a6;" parent="1" vertex="1">
          <mxGeometry x="520" y="764" width="80" height="80" as="geometry" />
        </mxCell>
        <mxCell id="uWzpOT1AdCiu_1bDRIk7-17" style="edgeStyle=orthogonalEdgeStyle;rounded=0;orthogonalLoop=1;jettySize=auto;html=1;" parent="1" source="uWzpOT1AdCiu_1bDRIk7-13" edge="1">
          <mxGeometry relative="1" as="geometry">
            <mxPoint x="420" y="1004" as="targetPoint" />
            <Array as="points">
              <mxPoint x="420" y="994" />
            </Array>
          </mxGeometry>
        </mxCell>
        <mxCell id="uWzpOT1AdCiu_1bDRIk7-13" value="Speler grijpt een bal" style="rounded=1;whiteSpace=wrap;html=1;fillColor=#fff2cc;strokeColor=#d6b656;" parent="1" vertex="1">
          <mxGeometry x="360" y="899" width="120" height="60" as="geometry" />
        </mxCell>
        <mxCell id="oClGTv9jNvnOxV3lfpxi-28" style="edgeStyle=orthogonalEdgeStyle;rounded=0;orthogonalLoop=1;jettySize=auto;html=1;exitX=0.5;exitY=1;exitDx=0;exitDy=0;entryX=0.5;entryY=0;entryDx=0;entryDy=0;" parent="1" source="uWzpOT1AdCiu_1bDRIk7-16" target="oClGTv9jNvnOxV3lfpxi-24" edge="1">
          <mxGeometry relative="1" as="geometry" />
        </mxCell>
        <mxCell id="oClGTv9jNvnOxV3lfpxi-31" value="Nee" style="edgeLabel;html=1;align=center;verticalAlign=middle;resizable=0;points=[];" parent="oClGTv9jNvnOxV3lfpxi-28" vertex="1" connectable="0">
          <mxGeometry x="-0.4667" relative="1" as="geometry">
            <mxPoint as="offset" />
          </mxGeometry>
        </mxCell>
        <mxCell id="oClGTv9jNvnOxV3lfpxi-34" style="edgeStyle=orthogonalEdgeStyle;rounded=0;orthogonalLoop=1;jettySize=auto;html=1;entryX=0.042;entryY=0.383;entryDx=0;entryDy=0;entryPerimeter=0;" parent="1" source="uWzpOT1AdCiu_1bDRIk7-16" target="uWzpOT1AdCiu_1bDRIk7-23" edge="1">
          <mxGeometry relative="1" as="geometry">
            <mxPoint x="600" y="1424" as="targetPoint" />
            <Array as="points">
              <mxPoint x="542" y="1364" />
              <mxPoint x="542" y="1414" />
              <mxPoint x="600" y="1414" />
              <mxPoint x="600" y="1417" />
            </Array>
          </mxGeometry>
        </mxCell>
        <mxCell id="oClGTv9jNvnOxV3lfpxi-39" value="Ja" style="edgeLabel;html=1;align=center;verticalAlign=middle;resizable=0;points=[];" parent="oClGTv9jNvnOxV3lfpxi-34" vertex="1" connectable="0">
          <mxGeometry x="-0.4767" y="-1" relative="1" as="geometry">
            <mxPoint as="offset" />
          </mxGeometry>
        </mxCell>
        <mxCell id="uWzpOT1AdCiu_1bDRIk7-16" value="3 rondes achter elkaar verloren" style="rhombus;whiteSpace=wrap;html=1;fillColor=#e1d5e7;strokeColor=#9673a6;" parent="1" vertex="1">
          <mxGeometry x="384" y="1324" width="80" height="80" as="geometry" />
        </mxCell>
        <mxCell id="uWzpOT1AdCiu_1bDRIk7-23" value="Spel eindigt win/verlies" style="rounded=1;whiteSpace=wrap;html=1;fillColor=#dae8fc;strokeColor=#6c8ebf;" parent="1" vertex="1">
          <mxGeometry x="620" y="1394" width="120" height="60" as="geometry" />
        </mxCell>
        <mxCell id="N4soiPl2ScsJzYf_9Olu-1" style="edgeStyle=orthogonalEdgeStyle;rounded=0;orthogonalLoop=1;jettySize=auto;html=1;" edge="1" parent="1" source="oClGTv9jNvnOxV3lfpxi-1">
          <mxGeometry relative="1" as="geometry">
            <mxPoint x="314" y="360" as="targetPoint" />
          </mxGeometry>
        </mxCell>
        <mxCell id="oClGTv9jNvnOxV3lfpxi-1" value="Speler 1 maakt naam" style="rounded=1;whiteSpace=wrap;html=1;fillColor=#fff2cc;strokeColor=#d6b656;" parent="1" vertex="1">
          <mxGeometry x="254" y="260" width="120" height="60" as="geometry" />
        </mxCell>
        <mxCell id="N4soiPl2ScsJzYf_9Olu-2" style="edgeStyle=orthogonalEdgeStyle;rounded=0;orthogonalLoop=1;jettySize=auto;html=1;" edge="1" parent="1" source="oClGTv9jNvnOxV3lfpxi-2">
          <mxGeometry relative="1" as="geometry">
            <mxPoint x="514" y="360" as="targetPoint" />
          </mxGeometry>
        </mxCell>
        <mxCell id="oClGTv9jNvnOxV3lfpxi-2" value="Speler 2 maakt naam" style="rounded=1;whiteSpace=wrap;html=1;fillColor=#fff2cc;strokeColor=#d6b656;" parent="1" vertex="1">
          <mxGeometry x="454" y="260" width="120" height="60" as="geometry" />
        </mxCell>
        <mxCell id="oClGTv9jNvnOxV3lfpxi-22" style="edgeStyle=orthogonalEdgeStyle;rounded=0;orthogonalLoop=1;jettySize=auto;html=1;entryX=0.5;entryY=0;entryDx=0;entryDy=0;" parent="1" source="oClGTv9jNvnOxV3lfpxi-5" target="uWzpOT1AdCiu_1bDRIk7-2" edge="1">
          <mxGeometry relative="1" as="geometry" />
        </mxCell>
        <mxCell id="oClGTv9jNvnOxV3lfpxi-5" value="Actieve team word geselecteerd (ronde 1 is speler 1)" style="rounded=1;whiteSpace=wrap;html=1;fillColor=#d5e8d4;strokeColor=#82b366;" parent="1" vertex="1">
          <mxGeometry x="364" y="484" width="120" height="60" as="geometry" />
        </mxCell>
        <mxCell id="oClGTv9jNvnOxV3lfpxi-13" style="edgeStyle=orthogonalEdgeStyle;rounded=0;orthogonalLoop=1;jettySize=auto;html=1;" parent="1" source="oClGTv9jNvnOxV3lfpxi-12" edge="1">
          <mxGeometry relative="1" as="geometry">
            <mxPoint x="420" y="1144" as="targetPoint" />
          </mxGeometry>
        </mxCell>
        <mxCell id="oClGTv9jNvnOxV3lfpxi-14" value="ja" style="edgeLabel;html=1;align=center;verticalAlign=middle;resizable=0;points=[];" parent="oClGTv9jNvnOxV3lfpxi-13" vertex="1" connectable="0">
          <mxGeometry x="-0.2397" y="-4" relative="1" as="geometry">
            <mxPoint as="offset" />
          </mxGeometry>
        </mxCell>
        <mxCell id="oClGTv9jNvnOxV3lfpxi-17" style="edgeStyle=orthogonalEdgeStyle;rounded=0;orthogonalLoop=1;jettySize=auto;html=1;" parent="1" source="oClGTv9jNvnOxV3lfpxi-12" edge="1">
          <mxGeometry relative="1" as="geometry">
            <mxPoint x="310" y="1014" as="targetPoint" />
            <Array as="points">
              <mxPoint x="356" y="1044" />
            </Array>
          </mxGeometry>
        </mxCell>
        <mxCell id="oClGTv9jNvnOxV3lfpxi-18" value="Nee" style="edgeLabel;html=1;align=center;verticalAlign=middle;resizable=0;points=[];" parent="oClGTv9jNvnOxV3lfpxi-17" vertex="1" connectable="0">
          <mxGeometry x="0.0305" y="1" relative="1" as="geometry">
            <mxPoint as="offset" />
          </mxGeometry>
        </mxCell>
        <mxCell id="oClGTv9jNvnOxV3lfpxi-12" value="Rode bal op ronde 1, of voor de 2e keer gegrepen?" style="rhombus;whiteSpace=wrap;html=1;fillColor=#e1d5e7;strokeColor=#9673a6;" parent="1" vertex="1">
          <mxGeometry x="380" y="1004" width="80" height="80" as="geometry" />
        </mxCell>
        <mxCell id="oClGTv9jNvnOxV3lfpxi-20" style="edgeStyle=orthogonalEdgeStyle;rounded=0;orthogonalLoop=1;jettySize=auto;html=1;entryX=0;entryY=0.5;entryDx=0;entryDy=0;" parent="1" source="oClGTv9jNvnOxV3lfpxi-19" target="uWzpOT1AdCiu_1bDRIk7-13" edge="1">
          <mxGeometry relative="1" as="geometry">
            <Array as="points">
              <mxPoint x="250" y="929" />
            </Array>
          </mxGeometry>
        </mxCell>
        <mxCell id="oClGTv9jNvnOxV3lfpxi-19" value="Bal word uit de poel gehaald" style="rounded=1;whiteSpace=wrap;html=1;fillColor=#d5e8d4;strokeColor=#82b366;" parent="1" vertex="1">
          <mxGeometry x="190" y="984" width="120" height="60" as="geometry" />
        </mxCell>
        <mxCell id="oClGTv9jNvnOxV3lfpxi-26" style="edgeStyle=orthogonalEdgeStyle;rounded=0;orthogonalLoop=1;jettySize=auto;html=1;exitX=0.5;exitY=1;exitDx=0;exitDy=0;entryX=0.5;entryY=0;entryDx=0;entryDy=0;" parent="1" source="oClGTv9jNvnOxV3lfpxi-21" target="oClGTv9jNvnOxV3lfpxi-23" edge="1">
          <mxGeometry relative="1" as="geometry" />
        </mxCell>
        <mxCell id="oClGTv9jNvnOxV3lfpxi-21" value="Bal word uit de poel gehaald, en de nummers van de bingo kaart afstrepen" style="rounded=1;whiteSpace=wrap;html=1;fillColor=#d5e8d4;strokeColor=#82b366;" parent="1" vertex="1">
          <mxGeometry x="360" y="1144" width="120" height="60" as="geometry" />
        </mxCell>
        <mxCell id="oClGTv9jNvnOxV3lfpxi-27" style="edgeStyle=orthogonalEdgeStyle;rounded=0;orthogonalLoop=1;jettySize=auto;html=1;exitX=0.5;exitY=1;exitDx=0;exitDy=0;entryX=0.5;entryY=0;entryDx=0;entryDy=0;" parent="1" source="oClGTv9jNvnOxV3lfpxi-23" target="uWzpOT1AdCiu_1bDRIk7-16" edge="1">
          <mxGeometry relative="1" as="geometry" />
        </mxCell>
        <mxCell id="oClGTv9jNvnOxV3lfpxi-30" value="Nee" style="edgeLabel;html=1;align=center;verticalAlign=middle;resizable=0;points=[];" parent="oClGTv9jNvnOxV3lfpxi-27" vertex="1" connectable="0">
          <mxGeometry x="-0.2258" relative="1" as="geometry">
            <mxPoint as="offset" />
          </mxGeometry>
        </mxCell>
        <mxCell id="oClGTv9jNvnOxV3lfpxi-33" style="edgeStyle=orthogonalEdgeStyle;rounded=0;orthogonalLoop=1;jettySize=auto;html=1;" parent="1" source="oClGTv9jNvnOxV3lfpxi-23" target="uWzpOT1AdCiu_1bDRIk7-23" edge="1">
          <mxGeometry relative="1" as="geometry" />
        </mxCell>
        <mxCell id="oClGTv9jNvnOxV3lfpxi-40" value="Ja" style="edgeLabel;html=1;align=center;verticalAlign=middle;resizable=0;points=[];" parent="oClGTv9jNvnOxV3lfpxi-33" vertex="1" connectable="0">
          <mxGeometry x="-0.3613" y="-2" relative="1" as="geometry">
            <mxPoint as="offset" />
          </mxGeometry>
        </mxCell>
        <mxCell id="oClGTv9jNvnOxV3lfpxi-23" value="10 woorden correct gegokt" style="rhombus;whiteSpace=wrap;html=1;fillColor=#e1d5e7;strokeColor=#9673a6;" parent="1" vertex="1">
          <mxGeometry x="384" y="1213" width="80" height="80" as="geometry" />
        </mxCell>
        <mxCell id="oClGTv9jNvnOxV3lfpxi-46" style="edgeStyle=orthogonalEdgeStyle;rounded=0;orthogonalLoop=1;jettySize=auto;html=1;exitX=0.5;exitY=1;exitDx=0;exitDy=0;" parent="1" source="oClGTv9jNvnOxV3lfpxi-24" target="oClGTv9jNvnOxV3lfpxi-45" edge="1">
          <mxGeometry relative="1" as="geometry" />
        </mxCell>
        <mxCell id="oClGTv9jNvnOxV3lfpxi-49" value="Nee" style="edgeLabel;html=1;align=center;verticalAlign=middle;resizable=0;points=[];" parent="oClGTv9jNvnOxV3lfpxi-46" vertex="1" connectable="0">
          <mxGeometry x="0.28" relative="1" as="geometry">
            <mxPoint as="offset" />
          </mxGeometry>
        </mxCell>
        <mxCell id="oClGTv9jNvnOxV3lfpxi-24" value="3 groene ballen?" style="rhombus;whiteSpace=wrap;html=1;fillColor=#e1d5e7;strokeColor=#9673a6;" parent="1" vertex="1">
          <mxGeometry x="384" y="1434" width="80" height="80" as="geometry" />
        </mxCell>
        <mxCell id="oClGTv9jNvnOxV3lfpxi-42" style="edgeStyle=orthogonalEdgeStyle;rounded=0;orthogonalLoop=1;jettySize=auto;html=1;entryX=0;entryY=0.75;entryDx=0;entryDy=0;" parent="1" source="oClGTv9jNvnOxV3lfpxi-25" target="oClGTv9jNvnOxV3lfpxi-5" edge="1">
          <mxGeometry relative="1" as="geometry">
            <Array as="points">
              <mxPoint x="170" y="1714" />
              <mxPoint x="170" y="529" />
            </Array>
          </mxGeometry>
        </mxCell>
        <mxCell id="oClGTv9jNvnOxV3lfpxi-43" value="Nee" style="edgeLabel;html=1;align=center;verticalAlign=middle;resizable=0;points=[];" parent="oClGTv9jNvnOxV3lfpxi-42" vertex="1" connectable="0">
          <mxGeometry x="-0.8414" y="-1" relative="1" as="geometry">
            <mxPoint as="offset" />
          </mxGeometry>
        </mxCell>
        <mxCell id="oClGTv9jNvnOxV3lfpxi-25" value="3 rode ballen?" style="rhombus;whiteSpace=wrap;html=1;fillColor=#e1d5e7;strokeColor=#9673a6;" parent="1" vertex="1">
          <mxGeometry x="384" y="1674" width="80" height="80" as="geometry" />
        </mxCell>
        <mxCell id="oClGTv9jNvnOxV3lfpxi-35" style="edgeStyle=orthogonalEdgeStyle;rounded=0;orthogonalLoop=1;jettySize=auto;html=1;entryX=0.008;entryY=0.883;entryDx=0;entryDy=0;entryPerimeter=0;" parent="1" source="oClGTv9jNvnOxV3lfpxi-24" target="uWzpOT1AdCiu_1bDRIk7-23" edge="1">
          <mxGeometry relative="1" as="geometry" />
        </mxCell>
        <mxCell id="oClGTv9jNvnOxV3lfpxi-38" value="Ja" style="edgeLabel;html=1;align=center;verticalAlign=middle;resizable=0;points=[];" parent="oClGTv9jNvnOxV3lfpxi-35" vertex="1" connectable="0">
          <mxGeometry x="-0.3912" y="3" relative="1" as="geometry">
            <mxPoint as="offset" />
          </mxGeometry>
        </mxCell>
        <mxCell id="oClGTv9jNvnOxV3lfpxi-36" style="edgeStyle=orthogonalEdgeStyle;rounded=0;orthogonalLoop=1;jettySize=auto;html=1;entryX=0.558;entryY=1.05;entryDx=0;entryDy=0;entryPerimeter=0;" parent="1" source="oClGTv9jNvnOxV3lfpxi-25" target="uWzpOT1AdCiu_1bDRIk7-23" edge="1">
          <mxGeometry relative="1" as="geometry" />
        </mxCell>
        <mxCell id="oClGTv9jNvnOxV3lfpxi-37" value="Ja" style="edgeLabel;html=1;align=center;verticalAlign=middle;resizable=0;points=[];" parent="oClGTv9jNvnOxV3lfpxi-36" vertex="1" connectable="0">
          <mxGeometry x="-0.1314" y="3" relative="1" as="geometry">
            <mxPoint as="offset" />
          </mxGeometry>
        </mxCell>
        <mxCell id="oClGTv9jNvnOxV3lfpxi-47" style="edgeStyle=orthogonalEdgeStyle;rounded=0;orthogonalLoop=1;jettySize=auto;html=1;exitX=0.5;exitY=1;exitDx=0;exitDy=0;entryX=0.5;entryY=0;entryDx=0;entryDy=0;" parent="1" source="oClGTv9jNvnOxV3lfpxi-45" target="oClGTv9jNvnOxV3lfpxi-25" edge="1">
          <mxGeometry relative="1" as="geometry" />
        </mxCell>
        <mxCell id="oClGTv9jNvnOxV3lfpxi-48" value="Nee" style="edgeLabel;html=1;align=center;verticalAlign=middle;resizable=0;points=[];" parent="oClGTv9jNvnOxV3lfpxi-47" vertex="1" connectable="0">
          <mxGeometry x="-0.12" relative="1" as="geometry">
            <mxPoint as="offset" />
          </mxGeometry>
        </mxCell>
        <mxCell id="oClGTv9jNvnOxV3lfpxi-50" style="edgeStyle=orthogonalEdgeStyle;rounded=0;orthogonalLoop=1;jettySize=auto;html=1;entryX=0.25;entryY=1;entryDx=0;entryDy=0;" parent="1" source="oClGTv9jNvnOxV3lfpxi-45" target="uWzpOT1AdCiu_1bDRIk7-23" edge="1">
          <mxGeometry relative="1" as="geometry" />
        </mxCell>
        <mxCell id="oClGTv9jNvnOxV3lfpxi-51" value="Ja" style="edgeLabel;html=1;align=center;verticalAlign=middle;resizable=0;points=[];" parent="oClGTv9jNvnOxV3lfpxi-50" vertex="1" connectable="0">
          <mxGeometry x="-0.3861" y="-1" relative="1" as="geometry">
            <mxPoint as="offset" />
          </mxGeometry>
        </mxCell>
        <mxCell id="oClGTv9jNvnOxV3lfpxi-45" value="Bingo lijn?" style="rhombus;whiteSpace=wrap;html=1;fillColor=#e1d5e7;strokeColor=#9673a6;" parent="1" vertex="1">
          <mxGeometry x="384" y="1544" width="80" height="80" as="geometry" />
        </mxCell>
        <mxCell id="N4soiPl2ScsJzYf_9Olu-5" style="edgeStyle=orthogonalEdgeStyle;rounded=0;orthogonalLoop=1;jettySize=auto;html=1;" edge="1" parent="1" source="N4soiPl2ScsJzYf_9Olu-3">
          <mxGeometry relative="1" as="geometry">
            <mxPoint x="410" y="480" as="targetPoint" />
          </mxGeometry>
        </mxCell>
        <mxCell id="N4soiPl2ScsJzYf_9Olu-3" value="Genereer bingo kaart met even nummers, en vul de ballen bij" style="rounded=1;whiteSpace=wrap;html=1;fillColor=#d5e8d4;strokeColor=#82b366;" vertex="1" parent="1">
          <mxGeometry x="260" y="360" width="120" height="60" as="geometry" />
        </mxCell>
        <mxCell id="N4soiPl2ScsJzYf_9Olu-6" style="edgeStyle=orthogonalEdgeStyle;rounded=0;orthogonalLoop=1;jettySize=auto;html=1;" edge="1" parent="1" source="N4soiPl2ScsJzYf_9Olu-4">
          <mxGeometry relative="1" as="geometry">
            <mxPoint x="430" y="480" as="targetPoint" />
          </mxGeometry>
        </mxCell>
        <mxCell id="N4soiPl2ScsJzYf_9Olu-4" value="Genereer bingo kaart met oneven nummers, en vul de ballen bij" style="rounded=1;whiteSpace=wrap;html=1;fillColor=#d5e8d4;strokeColor=#82b366;" vertex="1" parent="1">
          <mxGeometry x="454" y="360" width="120" height="60" as="geometry" />
        </mxCell>
      </root>
    </mxGraphModel>
  </diagram>
</mxfile>
